# xmcd
#
# Track frame offsets:
# 150
# 17037
# 37723
# 58742
# 74500
# 93814
# 109958
# 130585
# 146022
# 164386
# 182501
# 199480
# 215078
# 235121
# 252059
# 270090
# 287954
# 302545
# 322711
# 337523
#
# Disc length: 4733 seconds
#
#
# Revision: 0
# Processed by: cddbd v1.5.1PL0 Copyright (c) Steve Scherf et al.
# Submitted via: FreeRIP 2.942 
#
DISCID=10127b14
DTITLE=Zeze di carmo e Luciano  As 20 mais - As 20 mais zeze di carmo e luciano 
DYEAR=1900
DGENRE=Country
TTITLE0=A Ferro E Fogo
TTITLE1=Preciso De Um Tempo
TTITLE2=Passou Da Conta
TTITLE3=Pra Sempre Em Mim
TTITLE4=Nem Mais Uma Dúvida
TTITLE5=Refém Do Amor
TTITLE6=Meu País
TTITLE7=Quem É Ele
TTITLE8=Meninos De Rua
TTITLE9=Pão De Mel
TTITLE10=Irresistível
TTITLE11=Menina Veneno
TTITLE12=Romaria
TTITLE13=Mexe Que É Bom
TTITLE14=Você Vai Ver
TTITLE15=Vem Cuidar De Mim
TTITLE16=Dois Amigos
TTITLE17=Sufocado (Drowning)
TTITLE18=Coração De Vidro
TTITLE19=Coração Em Pedaços
EXTD=emerson@betim.mg.gov.br
EXTT0=
EXTT1=
EXTT2=
EXTT3=
EXTT4=
EXTT5=
EXTT6=
EXTT7=
EXTT8=
EXTT9=
EXTT10=
EXTT11=
EXTT12=
EXTT13=
EXTT14=
EXTT15=
EXTT16=
EXTT17=
EXTT18=
EXTT19=
PLAYORDER=
